<?xml version="1.0" standalone="no"?><!DOCTYPE svg PUBLIC "-//W3C//DTD SVG 1.1//EN" "http://www.w3.org/Graphics/SVG/1.1/DTD/svg11.dtd"><svg t="1774797255241" class="icon" viewBox="0 0 1024 1024" version="1.1" xmlns="http://www.w3.org/2000/svg" p-id="12407" xmlns:xlink="http://www.w3.org/1999/xlink" width="200" height="200"><path d="M367.2064 580.3008l144.896 99.072 139.6736-96.3584 313.088 308.8896c-8.2432 2.6624-17.0496 4.096-26.2144 4.096H85.3504c-11.264 0-22.016-2.2016-31.8976-6.144l313.7536-309.5552zM1024 326.4512v484.1984c0 12.6464-2.7648 24.6272-7.68 35.4304l-306.8928-302.7968L1024 326.4512zM0 329.1648l309.3504 211.5584-303.9232 299.9296A85.1456 85.1456 0 0 1 0 810.6496V329.216zM938.6496 128c47.104 0 85.3504 38.1952 85.3504 85.3504v30.0032L511.8976 596.3776 0 246.272v-32.9216C0 166.2464 38.1952 128 85.3504 128h853.2992z" fill="#555555" p-id="12408"></path></svg>