<?xml version="1.0" standalone="no"?><!DOCTYPE svg PUBLIC "-//W3C//DTD SVG 1.1//EN" "http://www.w3.org/Graphics/SVG/1.1/DTD/svg11.dtd"><svg class="icon" width="200px" height="200.00px" viewBox="0 0 1024 1024" version="1.1" xmlns="http://www.w3.org/2000/svg"><path d="M204.8 938.666667 204.8 938.666667C140.8 938.666667 85.333333 883.2 85.333333 819.2L85.333333 819.2C85.333333 755.2 140.8 699.733333 204.8 699.733333L204.8 699.733333C268.8 699.733333 324.266667 755.2 324.266667 819.2L324.266667 819.2C324.266667 883.2 273.066667 938.666667 204.8 938.666667M85.333333 85.333333 85.333333 213.333333C486.4 213.333333 810.666667 537.6 810.666667 938.666667L938.666667 938.666667C938.666667 467.2 556.8 85.333333 85.333333 85.333333M85.333333 345.6 85.333333 473.6C341.333333 473.6 550.4 682.666667 550.4 938.666667L678.4 938.666667C678.4 610.133333 413.866667 345.6 85.333333 345.6Z" /></svg>